<svg width="28" height="18" xmlns="http://www.w3.org/2000/svg"><path d="M14.17 17.75c4.05 0 2.606-2.564 2.918-3.302-.005-.55-.01-1.08.01-1.402.256.072.862.38 2.112 1.595 1.931 1.948 2.425 3.109 3.985 3.109h2.87c.91 0 1.384-.377 1.621-.693.229-.306.453-.842.208-1.678-.64-2.011-4.376-5.484-4.608-5.85.034-.068.09-.158.12-.205h-.003c.738-.974 3.552-5.19 3.966-6.877a.021.021 0 00.002-.01c.224-.77.019-1.269-.194-1.551-.32-.422-.828-.636-1.515-.636h-2.871c-.962 0-1.69.484-2.06 1.367-.617 1.57-2.35 4.796-3.65 5.939a74.774 74.774 0 01.008-3.772c.042-1.791.178-3.534-1.68-3.534h-4.514c-1.164 0-2.278 1.272-1.072 2.781 1.055 1.323.38 2.06.607 5.731-.887-.95-2.464-3.519-3.58-6.8-.312-.888-.786-1.71-2.12-1.71H1.86C.695.251 0 .885 0 1.948 0 4.336 5.284 17.75 14.17 17.75zM4.73 2.001c.254 0 .28 0 .467.533 1.143 3.364 3.705 8.34 5.576 8.34 1.406 0 1.406-1.44 1.406-1.982l-.001-4.32c-.077-1.429-.598-2.14-.94-2.572l4.093.005c.003.02-.023 4.777.012 5.93 0 1.637 1.3 2.575 3.328.521 2.141-2.416 3.622-6.028 3.681-6.175.088-.21.163-.281.439-.281h2.883c-.002.003-.002.007-.003.01-.262 1.226-2.853 5.13-3.72 6.341a1.005 1.005 0 00-.04.059c-.381.623-.692 1.311.053 2.28.069.081.245.272.501.538.798.824 3.535 3.64 3.778 4.76-.161.026-.336.007-3.048.013-.578 0-1.03-.863-2.753-2.602-1.549-1.507-2.555-2.123-3.47-2.123-1.779 0-1.649 1.443-1.633 3.189.006 1.892-.005 1.293.007 1.412-.104.041-.401.123-1.177.123C6.767 16 1.946 4.25 1.76 2.005c.065-.006.948-.003 2.97-.004z"/></svg>