<svg width="24" height="24" xmlns="http://www.w3.org/2000/svg"><path fill-rule="evenodd" clip-rule="evenodd" d="M19.958 4.008a11.077 11.077 0 00-7.886-3.27C5.926.738.925 5.74.922 11.887c0 1.965.513 3.883 1.488 5.574L.83 23.238l5.91-1.55a11.137 11.137 0 005.328 1.357h.005c6.145 0 11.147-5.002 11.149-11.15a11.08 11.08 0 00-3.263-7.887zm-7.886 17.154h-.004A9.256 9.256 0 017.35 19.87l-.338-.2-3.507.92.936-3.42-.22-.35a9.244 9.244 0 01-1.417-4.933c.002-5.109 4.159-9.266 9.27-9.266a9.204 9.204 0 016.552 2.718 9.212 9.212 0 012.712 6.556c-.003 5.11-4.16 9.267-9.267 9.267zm5.083-6.94c-.279-.14-1.649-.814-1.904-.907-.255-.093-.441-.14-.627.14-.185.278-.72.906-.882 1.092-.162.186-.325.21-.603.07-.279-.14-1.177-.434-2.24-1.383-.829-.739-1.388-1.651-1.55-1.93-.163-.279-.002-.415.122-.568.301-.375.603-.768.696-.953.093-.186.046-.349-.023-.488-.07-.14-.627-1.511-.859-2.069-.226-.543-.456-.47-.627-.478-.162-.008-.348-.01-.534-.01-.185 0-.487.07-.743.349-.255.279-.975.953-.975 2.324s.999 2.696 1.138 2.882c.14.186 1.964 3 4.759 4.206.664.287 1.183.459 1.588.587.668.212 1.275.182 1.755.11.535-.08 1.648-.674 1.88-1.324.232-.651.232-1.209.163-1.325-.07-.116-.256-.186-.534-.325z"/></svg>