<svg width="25" height="25" fill="none" xmlns="http://www.w3.org/2000/svg"><g clip-path="url(#clip0)" fill="#01569B"><path d="M11.458 23.942C5.141 23.942 0 18.802 0 12.484 0 6.167 5.14 1.026 11.458 1.026c2.197 0 4.334.626 6.181 1.812a.782.782 0 01-.845 1.315 9.853 9.853 0 00-5.336-1.564c-5.456 0-9.896 4.44-9.896 9.895 0 5.456 4.44 9.896 9.896 9.896s9.895-4.44 9.895-9.896c0-.326-.015-.649-.045-.966a.78.78 0 111.555-.151c.035.367.053.74.053 1.117 0 6.318-5.14 11.458-11.458 11.458z"/><path d="M12.76 15.088c-.2 0-.4-.076-.553-.23L7.52 10.173a.782.782 0 011.105-1.106l4.135 4.136L23.665 2.297a.782.782 0 011.105 1.105L13.312 14.86a.783.783 0 01-.553.228z"/></g><defs><clipPath id="clip0"><path fill="#fff" d="M0 0h25v25H0z"/></clipPath></defs></svg>