<svg width="468" height="260" viewBox="0 0 468 260" fill="none" xmlns="http://www.w3.org/2000/svg">
<path d="M57.541 51.2828C38.9214 61.1519 15.0347 85.2508 7.07695 99.216L7.03118 99.3779C5.29393 105.525 0.219632 123.478 5.12626 142.33C11.3144 166.105 32.2881 197.635 56.0775 230.619C79.8669 263.602 121.423 259.947 145.405 248.101C169.387 236.255 245.753 210.278 297.197 212.98C348.642 215.682 400.672 214.294 433.754 205.262C466.836 196.229 467.313 162.089 463.914 138.749C460.514 115.409 385.921 51.6906 359.628 28.9612C333.335 6.23179 291.466 24.1579 254.725 26.1568C217.984 28.1558 187.679 11.1365 158.447 8.3508C129.215 5.56511 80.8156 38.9464 57.541 51.2828Z" fill="#F0F5F8"/>
</svg>
