<svg version="1.1" id="Layer_1" xmlns="http://www.w3.org/2000/svg" x="0" y="0" viewBox="0 0 452.3 87" xml:space="preserve"><style>.st1{fill:#01579b}.st1,.st2,.st3,.st4{fill-rule:evenodd;clip-rule:evenodd}.st2{fill:#0288d1}.st3{fill:#29b6f6}.st4{fill:#81d4fa}</style><path d="M116.2 25.3h9.2v24h.3l11.4-24H150v36.5h-9.2v-24h-.3l-11 24h-13.2V25.3h-.1zm72.3 0v36.5h-9.7V47.4H166v14.3h-9.7V25.3h9.7V39h12.7V25.3h9.8zm38.3 0v36.5h-9.7v-28h-12.7v28h-9.7V25.3h32.1zm15.6 36.4h-9.7V25.3H251c2.3 0 4.2.3 5.8.8 1.6.5 2.9 1.3 3.8 2.3 1 1.1 1.7 2.4 2.1 4.1.5 1.7.7 3.7.7 6.1 0 2.7-.2 4.9-.5 6.6-.4 1.7-1 3.1-1.9 4.2-.9 1-2.1 1.8-3.8 2.3-1.6.5-3.7.7-6.3.7h-8.6v9.3h.1zm0-17.8h6.7c1.3 0 2.3-.1 2.9-.4.6-.2 1-.7 1.2-1.4.2-.7.3-1.9.3-3.5 0-1.3-.1-2.3-.3-3-.2-.7-.6-1.2-1.2-1.5-.6-.3-1.6-.4-2.8-.4h-6.7v10.2h-.1zM282.9 62c-2.7 0-5-.2-7-.6-2-.4-3.7-1-5.2-2s-2.6-2.3-3.4-4.1c-.8-1.8-1.2-4-1.2-6.7V38.3c0-2.7.4-5 1.2-6.7.8-1.8 2-3.1 3.4-4.1 1.5-1 3.2-1.6 5.2-2 2-.4 4.3-.6 7-.6s5.1.2 7.1.6c2 .4 3.7 1 5.2 2s2.6 2.3 3.4 4.1c.8 1.8 1.2 4 1.2 6.7v10.3c0 2.7-.4 5-1.2 6.7-.8 1.8-1.9 3.1-3.4 4.1-1.5 1-3.2 1.6-5.2 2-2 .4-4.4.6-7.1.6zm0-8.4c1.9 0 3.3-.1 4.2-.4.9-.3 1.6-.8 2-1.7.4-.8.6-2.2.6-3.9v-8.2c0-1.4-.1-2.4-.4-3.2-.2-.8-.6-1.4-1.1-1.8-.5-.4-1.2-.6-2-.8-.8-.1-1.9-.2-3.3-.2-1.8 0-3.2.1-4.1.4-.9.3-1.6.8-2 1.6-.4.8-.7 2.1-.7 3.9v8.2c0 1.8.3 3.1.7 4 .4.8 1.1 1.4 2 1.6.9.3 2.3.5 4.1.5zm30.2-19.8l1 28h-9.7V25.3h15.4l7 22.9h.3l6.6-22.9h15.8v36.5h-9.7l1-28h-.3l-9.2 28h-8.4l-9.3-28h-.5zm58.4-.1v28h-9.7v-28h-9.3v-8.5h28.9v8.5h-9.9zm22.7-.5v6.7h15.6v6.8h-15.6v7.1h16.9v8h-26.7V25.3h26.3v8h-16.5v-.1zm33-7.9V39h2.9l9.4-13.7h11.8l-12.8 17.9 13.9 18.6h-12.1l-10.2-14.3h-2.9v14.3h-9.7V25.3h9.7z" fill="#01579b"/><path class="st1" d="M57.4 68.2c.1-.1.2-.1.3-.2l10.8-10.8 14-14c6.4 7.5 6.1 18.9-1 26L70.1 80.5c-7.1 7.1-18.6 7.4-26.1 1l13.4-13.3zm-26 .6c-6.8-7.1-7-18.3-.6-25.7L44 56.3 31.4 68.8z"/><path class="st2" d="M57.4 68.2c.1-.1.2-.1.3-.2l10.8-10.8 10.9-10.9c4.7 5.8 4.4 14.4-1 19.8L67 77.4c-5.4 5.4-14 5.7-19.8 1l10.2-10.2zm-22.9-2.5c-5.1-5.4-5.2-13.8-.6-19.5l10 10-9.4 9.5z"/><path class="st3" d="M57.4 68.2c.1-.1.2-.1.3-.2l10.8-10.8 7.7-7.7c3 4 2.7 9.8-1 13.5L63.9 74.2c-3.7 3.7-9.5 4-13.5.9l7-6.9zm-19.7-5.6c-3.3-3.7-3.5-9.3-.5-13.2l6.9 6.9-6.4 6.3z"/><path class="st4" d="M57.4 68.2c.1-.1.2-.1.3-.2l10.8-10.8 4.5-4.5c1.3 2.3 1 5.2-.9 7.2L60.8 71.1c-1.9 1.9-4.9 2.2-7.2.9l3.8-3.8zm-16.6-8.8c-1.6-2-1.8-4.7-.5-6.9l3.7 3.7-3.2 3.2z"/><path class="st4" d="M69.9 5.9l11.3 11.3c7.5 7.5 7.5 19.7 0 27.1L69.9 55.6c-7.5 7.5-19.7 7.5-27.1 0L31.5 44.3c-7.5-7.5-7.5-19.7 0-27.1L42.7 5.9c7.5-7.5 19.7-7.5 27.2 0zM57.4 18.4l11.3 11.3c.6.6.6 1.5 0 2.1L57.4 43.1c-.6.6-1.5.6-2.1 0L44 31.8c-.6-.6-.6-1.5 0-2.1l11.3-11.3c.6-.6 1.5-.6 2.1 0z"/><path class="st3" d="M66.8 9l11.3 11.3c5.7 5.7 5.7 15.1 0 20.9L66.8 52.5c-5.7 5.7-15.1 5.7-20.9 0L34.6 41.2c-5.7-5.7-5.7-15.1 0-20.9L45.9 9C51.6 3.3 61 3.3 66.8 9zm-9.4 9.4l11.3 11.3c.6.6.6 1.5 0 2.1L57.4 43.1c-.6.6-1.5.6-2.1 0L44 31.8c-.6-.6-.6-1.5 0-2.1l11.3-11.3c.6-.6 1.5-.6 2.1 0z"/><path class="st2" d="M63.6 12.1l11.3 11.3c4 4 4 10.6 0 14.6L63.6 49.3c-4 4-10.6 4-14.6 0L37.7 38c-4-4-4-10.6 0-14.6L49 12.1c4-4 10.6-4 14.6 0zm-6.2 6.3l11.3 11.3c.6.6.6 1.5 0 2.1L57.4 43.1c-.6.6-1.5.6-2.1 0L44 31.8c-.6-.6-.6-1.5 0-2.1l11.3-11.3c.6-.6 1.5-.6 2.1 0z"/><path class="st1" d="M60.5 15.3l11.3 11.3c2.3 2.3 2.3 6 0 8.3L60.5 46.2c-2.3 2.3-6 2.3-8.3 0L40.9 34.9c-2.3-2.3-2.3-6 0-8.3l11.3-11.3c2.2-2.3 6-2.3 8.3 0zm-3.1 3.1l11.3 11.3c.6.6.6 1.5 0 2.1L57.4 43.1c-.6.6-1.5.6-2.1 0L44 31.8c-.6-.6-.6-1.5 0-2.1l11.3-11.3c.6-.6 1.5-.6 2.1 0z"/><path class="st4" d="M44 31.8L55.3 43c7.5 7.5 7.5 19.7 0 27.1L44 81.4c-7.5 7.5-19.7 7.5-27.1 0L5.6 70.1c-7.5-7.5-7.5-19.7 0-27.1l11.3-11.3c7.4-7.4 19.6-7.4 27.1.1zM31.5 44.3l11.3 11.3c.6.6.6 1.5 0 2.1L31.5 68.9c-.6.6-1.5.6-2.1 0L18.1 57.6c-.6-.6-.6-1.5 0-2.1l11.3-11.3c.6-.5 1.5-.5 2.1.1z"/><path class="st3" d="M40.8 34.9l11.3 11.3c5.7 5.7 5.7 15.1 0 20.9L40.8 78.3C35.1 84 25.7 84 20 78.3L8.7 67C3 61.3 3 51.9 8.7 46.2L20 34.9c5.7-5.8 15.1-5.8 20.8 0zm-9.3 9.4l11.3 11.3c.6.6.6 1.5 0 2.1L31.5 68.9c-.6.6-1.5.6-2.1 0L18.1 57.6c-.6-.6-.6-1.5 0-2.1l11.3-11.3c.6-.5 1.5-.5 2.1.1z"/><path class="st2" d="M37.7 38L49 49.3c4 4 4 10.6 0 14.6L37.7 75.2c-4 4-10.6 4-14.6 0L11.9 63.9c-4-4-4-10.6 0-14.6L23.1 38c4-4 10.6-4 14.6 0zm-6.2 6.3l11.3 11.3c.6.6.6 1.5 0 2.1L31.5 68.9c-.6.6-1.5.6-2.1 0L18.1 57.6c-.6-.6-.6-1.5 0-2.1l11.3-11.3c.6-.5 1.5-.5 2.1.1z"/><path class="st1" d="M34.6 41.1l11.3 11.3c2.3 2.3 2.3 6 0 8.3L34.6 72c-2.3 2.3-6 2.3-8.3 0L15 60.8c-2.3-2.3-2.3-6 0-8.3l11.3-11.3c2.2-2.3 6-2.3 8.3-.1zm-3.1 3.2l11.3 11.3c.6.6.6 1.5 0 2.1L31.5 68.9c-.6.6-1.5.6-2.1 0L18.1 57.6c-.6-.6-.6-1.5 0-2.1l11.3-11.3c.6-.5 1.5-.5 2.1.1z"/><path class="st1" d="M6.2 16.9L17.5 5.6c7.2-7.2 18.8-7.4 26.3-.7L31.6 17.1l-.6.6c-.3 0-.6.2-.9.4L18.7 29.4c-.2.2-.4.5-.4.9L5.4 43.1C-1.2 35.6-1 24 6.2 16.9zm24.3 26.2c.5.2 1.2.1 1.6-.3l11.3-11.3c.4-.4.5-1 .3-1.5l12.6-12.6c7 7.5 6.9 19.3-.4 26.6L44.6 55.3c-7.3 7.3-19.2 7.5-26.7.4l12.6-12.6z"/><path class="st2" d="M9.3 20L20.6 8.7C26.1 3.2 34.9 3 40.7 8l-9.1 9.1-.6.6c-.3 0-.6.2-.9.4L18.7 29.4c-.2.2-.4.5-.4.9L8.6 40c-5-5.8-4.7-14.5.7-20zm21.2 23.1c.5.2 1.2.1 1.6-.3l11.3-11.3c.4-.4.5-1 .3-1.5l9.5-9.5c5.3 5.8 5.1 14.8-.4 20.4L41.5 52.1c-5.6 5.6-14.7 5.7-20.4.4l9.4-9.4z"/><path class="st3" d="M12.5 23.1l11.3-11.3c3.8-3.8 9.7-4 13.8-.7l-6 6-.6.6c-.3 0-.6.2-.9.4L18.7 29.4c-.2.2-.4.5-.4.9l-6.6 6.6c-3.2-4.1-3-10 .8-13.8zm18 20c.5.2 1.2.1 1.6-.3l11.3-11.3c.4-.4.5-1 .3-1.5l6.4-6.4c3.6 4 3.4 10.3-.4 14.1L38.3 49c-3.9 3.9-10.1 4-14.2.4l6.4-6.3z"/><path class="st4" d="M15.6 26.3L26.9 15c2-2 5.2-2.3 7.5-.7l-2.8 2.8-.6.6c-.3 0-.6.2-.9.4L18.7 29.4c-.2.2-.4.5-.4.9l-3.4 3.4c-1.6-2.3-1.3-5.4.7-7.4zm14.9 16.8c.5.2 1.2.1 1.6-.3l11.3-11.3c.4-.4.5-1 .3-1.5l3.2-3.2c1.9 2.3 1.7 5.7-.4 7.9L35.2 45.9c-2.2 2.2-5.6 2.3-7.9.4l3.2-3.2z"/></svg>