<?xml version="1.0" encoding="utf-8"?>
<!-- Generator: Adobe Illustrator 22.0.1, SVG Export Plug-In . SVG Version: 6.00 Build 0)  -->
<svg version="1.1" id="Layer_1" xmlns="http://www.w3.org/2000/svg" xmlns:xlink="http://www.w3.org/1999/xlink" x="0px" y="0px"
	 viewBox="0 0 325 67" style="enable-background:new 0 0 325 67;" xml:space="preserve">
<style type="text/css">
	.st0{fill:#01579B;}
	.st1{fill-rule:evenodd;clip-rule:evenodd;fill:#01579B;}
	.st2{fill-rule:evenodd;clip-rule:evenodd;fill:#0288D1;}
	.st3{fill-rule:evenodd;clip-rule:evenodd;fill:#29B6F6;}
	.st4{fill-rule:evenodd;clip-rule:evenodd;fill:#81D4FA;}
</style>
<path class="st0" d="M84.9,20.6h6.6v17h0.2l8.1-17h9.1v25.9h-6.6v-17H102l-7.8,17h-9.4V20.6L84.9,20.6z M136.1,20.6v25.9h-6.9V36.3
	h-9v10.1h-6.9V20.6h6.9v9.7h9v-9.7H136.1L136.1,20.6z M163.3,20.6v25.9h-6.9V26.6h-9v19.9h-6.9V20.6H163.3L163.3,20.6z M174.4,46.4
	h-6.9V20.6h13c1.6,0,3,0.2,4.1,0.5c1.1,0.4,2,0.9,2.7,1.7c0.7,0.7,1.2,1.7,1.5,2.9c0.3,1.2,0.5,2.7,0.5,4.4c0,1.9-0.1,3.5-0.4,4.7
	c-0.3,1.2-0.7,2.2-1.3,2.9c-0.6,0.7-1.5,1.3-2.7,1.6c-1.2,0.3-2.6,0.5-4.4,0.5h-6.1V46.4L174.4,46.4z M174.4,33.8h4.7
	c0.9,0,1.6-0.1,2-0.3c0.4-0.2,0.7-0.5,0.9-1c0.2-0.5,0.2-1.3,0.2-2.5c0-0.9-0.1-1.6-0.2-2.1c-0.1-0.5-0.4-0.8-0.9-1
	c-0.4-0.2-1.1-0.3-2-0.3h-4.7V33.8L174.4,33.8z M203.1,46.6c-1.9,0-3.6-0.1-5-0.4c-1.4-0.3-2.6-0.7-3.7-1.4c-1-0.7-1.9-1.7-2.4-2.9
	c-0.6-1.3-0.9-2.8-0.9-4.8v-7.3c0-1.9,0.3-3.5,0.9-4.8c0.6-1.3,1.4-2.2,2.4-2.9c1-0.7,2.3-1.1,3.7-1.4c1.4-0.3,3.1-0.4,5-0.4
	c1.9,0,3.6,0.1,5,0.4c1.4,0.3,2.6,0.7,3.7,1.4c1,0.7,1.8,1.6,2.4,2.9c0.6,1.3,0.9,2.9,0.9,4.8v7.3c0,1.9-0.3,3.5-0.9,4.8
	c-0.6,1.3-1.4,2.2-2.4,2.9c-1,0.7-2.3,1.2-3.7,1.4C206.7,46.5,205,46.6,203.1,46.6L203.1,46.6z M203.1,40.6c1.3,0,2.3-0.1,3-0.3
	c0.7-0.2,1.1-0.6,1.4-1.2c0.3-0.6,0.5-1.5,0.5-2.8v-5.8c0-1-0.1-1.7-0.3-2.3c-0.2-0.6-0.4-1-0.8-1.2c-0.4-0.3-0.9-0.5-1.4-0.5
	c-0.6-0.1-1.4-0.1-2.4-0.1c-1.3,0-2.3,0.1-2.9,0.3c-0.6,0.2-1.1,0.6-1.4,1.2c-0.3,0.6-0.5,1.5-0.5,2.8v5.8c0,1.3,0.2,2.2,0.5,2.8
	c0.3,0.6,0.8,1,1.4,1.2C200.8,40.5,201.8,40.6,203.1,40.6L203.1,40.6z M224.5,26.6l0.7,19.8h-6.9V20.6h10.9l4.9,16.2h0.2l4.7-16.2
	h11.2v25.9h-6.9l0.7-19.8h-0.2l-6.6,19.8h-6l-6.6-19.8H224.5L224.5,26.6z M266,26.6v19.9h-6.9V26.6h-6.6v-6h20.5v6H266L266,26.6z
	 M281.2,37h-7.1v0.4c0,1.8,0.1,3.3,0.4,4.4c0.3,1.1,0.9,2.1,2,3c0.7,0.6,1.6,1,2.5,1.3c0.9,0.3,1.8,0.4,2.7,0.5
	c0.9,0.1,2,0.1,3.4,0.1c2.2,0,3.9-0.1,5.2-0.3c1.3-0.2,2.4-0.6,3.4-1.2c1-0.6,1.8-1.6,2.3-2.9c0.5-1.3,0.8-3.2,0.8-5.4v-6.7
	c0-2-0.2-3.7-0.7-5c-0.5-1.3-1.2-2.3-2.2-3c-1-0.7-2.2-1.2-3.6-1.4c-1.4-0.3-3.1-0.4-5.2-0.4c-3.6,0-6.4,0.6-8.2,1.9
	c-1.9,1.3-2.8,3.5-2.8,6.5v0.3h7.1v-0.6c0-1,0.4-1.6,1.1-2c0.7-0.4,1.8-0.6,3.2-0.6c1.3,0,2.2,0.1,2.8,0.5c0.6,0.3,1,0.8,1.2,1.5
	c0.2,0.7,0.3,1.7,0.3,3h-6.5v4.8h6.5c0,1.4-0.1,2.5-0.2,3.2c-0.2,0.7-0.5,1.2-1.2,1.6c-0.6,0.4-1.6,0.5-2.9,0.5
	c-1.1,0-1.9-0.1-2.5-0.2c-0.6-0.1-1-0.4-1.3-0.9c-0.3-0.5-0.4-1.2-0.4-2.2V37L281.2,37z M307.2,20.6v9.7h2.1l6.7-9.7h8.3l-9.1,12.7
	l9.9,13.2h-8.6l-7.2-10.1h-2.1v10.1h-6.9V20.6H307.2L307.2,20.6z"/>
<g>
	<path class="st1" d="M44.2,52.5c0.1,0,0.1-0.1,0.2-0.2l8.3-8.3l0,0l10.8-10.8c5,5.8,4.7,14.6-0.8,20L54,62
		c-5.5,5.5-14.3,5.7-20.1,0.7L44.2,52.5L44.2,52.5z M24.2,53c-5.2-5.5-5.4-14.1-0.4-19.8l10.1,10.1L24.2,53L24.2,53z"/>
	<path class="st2" d="M44.2,52.5c0.1,0,0.1-0.1,0.2-0.2l8.3-8.3l0,0l8.4-8.4c3.6,4.4,3.4,11.1-0.8,15.2l-8.7,8.7
		c-4.2,4.2-10.8,4.4-15.2,0.7L44.2,52.5L44.2,52.5z M26.6,50.6c-3.9-4.2-4-10.6-0.4-15l7.7,7.7L26.6,50.6L26.6,50.6z"/>
	<path class="st3" d="M44.2,52.5c0.1,0,0.1-0.1,0.2-0.2l8.3-8.3l0,0l6-6c2.3,3.1,2.1,7.6-0.7,10.4l-8.7,8.7
		c-2.8,2.8-7.3,3.1-10.4,0.7L44.2,52.5L44.2,52.5z M29,48.2c-2.6-2.8-2.7-7.1-0.4-10.1l5.3,5.3L29,48.2L29,48.2z"/>
	<path class="st4" d="M44.2,52.5c0.1,0,0.1-0.1,0.2-0.2l8.3-8.3l0,0l3.5-3.5c1,1.7,0.8,4-0.7,5.5l-8.7,8.7c-1.5,1.5-3.8,1.7-5.5,0.7
		L44.2,52.5L44.2,52.5z M31.4,45.8c-1.3-1.5-1.4-3.6-0.4-5.3l2.8,2.8L31.4,45.8L31.4,45.8z"/>
	<path class="st4" d="M53.8,4.5l8.7,8.7c5.7,5.7,5.7,15.2,0,20.9l-8.7,8.7c-5.7,5.7-15.2,5.7-20.9,0l-8.7-8.7
		c-5.7-5.7-5.7-15.2,0-20.9l8.7-8.7C38.7-1.2,48.1-1.2,53.8,4.5L53.8,4.5z M44.2,14.2l8.7,8.7c0.4,0.4,0.4,1.2,0,1.6l-8.7,8.7
		c-0.4,0.4-1.2,0.4-1.6,0l-8.7-8.7c-0.4-0.4-0.4-1.2,0-1.6l8.7-8.7C43,13.7,43.7,13.7,44.2,14.2L44.2,14.2z"/>
	<path class="st3" d="M51.4,6.9l8.7,8.7c4.4,4.4,4.4,11.7,0,16.1l-8.7,8.7c-4.4,4.4-11.7,4.4-16.1,0l-8.7-8.7
		c-4.4-4.4-4.4-11.7,0-16.1l8.7-8.7C39.8,2.5,47,2.5,51.4,6.9L51.4,6.9z M44.2,14.2l8.7,8.7c0.4,0.4,0.4,1.2,0,1.6l-8.7,8.7
		c-0.4,0.4-1.2,0.4-1.6,0l-8.7-8.7c-0.4-0.4-0.4-1.2,0-1.6l8.7-8.7C43,13.7,43.7,13.7,44.2,14.2L44.2,14.2z"/>
	<path class="st2" d="M49,9.3l8.7,8.7c3.1,3.1,3.1,8.2,0,11.3L49,38c-3.1,3.1-8.2,3.1-11.3,0l-8.7-8.7c-3.1-3.1-3.1-8.2,0-11.3
		l8.7-8.7C40.8,6.3,45.9,6.3,49,9.3L49,9.3z M44.2,14.2l8.7,8.7c0.4,0.4,0.4,1.2,0,1.6l-8.7,8.7c-0.4,0.4-1.2,0.4-1.6,0l-8.7-8.7
		c-0.4-0.4-0.4-1.2,0-1.6l8.7-8.7C43,13.7,43.7,13.7,44.2,14.2L44.2,14.2z"/>
	<path class="st1" d="M46.6,11.8l8.7,8.7c1.8,1.8,1.8,4.7,0,6.4l-8.7,8.7c-1.8,1.8-4.7,1.8-6.4,0l-8.7-8.7c-1.8-1.8-1.8-4.7,0-6.4
		l8.7-8.7C41.9,10,44.8,10,46.6,11.8L46.6,11.8z M44.2,14.2l8.7,8.7c0.4,0.4,0.4,1.2,0,1.6l-8.7,8.7c-0.4,0.4-1.2,0.4-1.6,0
		l-8.7-8.7c-0.4-0.4-0.4-1.2,0-1.6l8.7-8.7C43,13.7,43.7,13.7,44.2,14.2L44.2,14.2z"/>
	<path class="st4" d="M33.9,24.5l8.7,8.7c5.7,5.7,5.7,15.1,0,20.9l-8.7,8.7c-5.7,5.7-15.1,5.7-20.9,0L4.3,54
		c-5.7-5.7-5.7-15.1,0-20.9l8.7-8.7C18.7,18.7,28.1,18.7,33.9,24.5L33.9,24.5z M24.2,34.1l8.7,8.7c0.4,0.4,0.4,1.2,0,1.6l-8.7,8.7
		c-0.4,0.4-1.2,0.4-1.6,0l-8.7-8.7c-0.4-0.4-0.4-1.2,0-1.6l8.7-8.7C23.1,33.7,23.8,33.7,24.2,34.1L24.2,34.1z"/>
	<path class="st3" d="M31.5,26.9l8.7,8.7c4.4,4.4,4.4,11.6,0,16.1l-8.7,8.7c-4.4,4.4-11.6,4.4-16.1,0l-8.7-8.7
		c-4.4-4.4-4.4-11.6,0-16.1l8.7-8.7C19.8,22.4,27,22.4,31.5,26.9L31.5,26.9z M24.2,34.1l8.7,8.7c0.4,0.4,0.4,1.2,0,1.6l-8.7,8.7
		c-0.4,0.4-1.2,0.4-1.6,0l-8.7-8.7c-0.4-0.4-0.4-1.2,0-1.6l8.7-8.7C23.1,33.7,23.8,33.7,24.2,34.1L24.2,34.1z"/>
	<path class="st2" d="M29.1,29.3l8.7,8.7c3.1,3.1,3.1,8.1,0,11.2l-8.7,8.7c-3.1,3.1-8.1,3.1-11.2,0l-8.7-8.7C6,46.1,6,41.1,9.1,38
		l8.7-8.7C20.9,26.2,26,26.2,29.1,29.3L29.1,29.3z M24.2,34.1l8.7,8.7c0.4,0.4,0.4,1.2,0,1.6l-8.7,8.7c-0.4,0.4-1.2,0.4-1.6,0
		l-8.7-8.7c-0.4-0.4-0.4-1.2,0-1.6l8.7-8.7C23.1,33.7,23.8,33.7,24.2,34.1L24.2,34.1z"/>
	<path class="st1" d="M26.6,31.7l8.7,8.7c1.8,1.8,1.8,4.7,0,6.4l-8.7,8.7c-1.8,1.8-4.7,1.8-6.4,0l-8.7-8.7c-1.8-1.8-1.8-4.7,0-6.4
		l8.7-8.7C22,29.9,24.9,29.9,26.6,31.7L26.6,31.7z M24.2,34.1l8.7,8.7c0.4,0.4,0.4,1.2,0,1.6l-8.7,8.7c-0.4,0.4-1.2,0.4-1.6,0
		l-8.7-8.7c-0.4-0.4-0.4-1.2,0-1.6l8.7-8.7C23.1,33.7,23.8,33.7,24.2,34.1L24.2,34.1z"/>
	<path class="st1" d="M4.8,13l8.7-8.7C19-1.2,28-1.4,33.7,3.7l-9.4,9.4l0,0l-0.5,0.5c-0.2,0-0.5,0.1-0.7,0.3l-8.7,8.7
		c-0.2,0.2-0.3,0.4-0.3,0.7l-9.9,9.9C-0.9,27.4-0.7,18.5,4.8,13L4.8,13z M23.5,33.2c0.4,0.2,0.9,0.1,1.2-0.2l8.7-8.7
		c0.3-0.3,0.4-0.8,0.3-1.2l9.7-9.7c5.4,5.8,5.3,14.9-0.3,20.5l-8.7,8.7c-5.6,5.6-14.8,5.7-20.6,0.3L23.5,33.2L23.5,33.2z"/>
	<path class="st2" d="M7.2,15.4l8.7-8.7c4.2-4.2,11-4.4,15.4-0.6l-7,7l0,0l-0.5,0.5c-0.2,0-0.5,0.1-0.7,0.3l-8.7,8.7
		c-0.2,0.2-0.3,0.4-0.3,0.7l-7.5,7.5C2.8,26.4,3,19.6,7.2,15.4L7.2,15.4z M23.5,33.2c0.4,0.2,0.9,0.1,1.2-0.2l8.7-8.7
		c0.3-0.3,0.4-0.8,0.3-1.2l7.3-7.3c4.1,4.4,4,11.4-0.3,15.7l-8.7,8.7c-4.3,4.3-11.3,4.4-15.7,0.3L23.5,33.2L23.5,33.2z"/>
	<path class="st3" d="M9.6,17.8l8.7-8.7c2.9-2.9,7.5-3.1,10.6-0.6l-4.6,4.6l0,0l-0.5,0.5c-0.2,0-0.5,0.1-0.7,0.3l-8.7,8.7
		c-0.2,0.2-0.3,0.4-0.3,0.7L9,28.4C6.5,25.3,6.7,20.7,9.6,17.8L9.6,17.8z M23.5,33.2c0.4,0.2,0.9,0.1,1.2-0.2l8.7-8.7
		c0.3-0.3,0.4-0.8,0.3-1.2l4.9-4.9c2.7,3.1,2.6,7.9-0.3,10.9l-8.7,8.7c-3,3-7.8,3.1-10.9,0.3L23.5,33.2L23.5,33.2z"/>
	<path class="st4" d="M12,20.2l8.7-8.7c1.6-1.6,4-1.7,5.8-0.5l-2.2,2.2l0,0l-0.5,0.5c-0.2,0-0.5,0.1-0.7,0.3l-8.7,8.7
		c-0.2,0.2-0.3,0.4-0.3,0.7l-2.7,2.7C10.3,24.2,10.5,21.8,12,20.2L12,20.2z M23.5,33.2c0.4,0.2,0.9,0.1,1.2-0.2l8.7-8.7
		c0.3-0.3,0.4-0.8,0.3-1.2l2.5-2.5c1.4,1.8,1.3,4.4-0.3,6l-8.7,8.7c-1.7,1.7-4.3,1.8-6.1,0.3L23.5,33.2L23.5,33.2z"/>
</g>
</svg>
