<?xml version="1.0" encoding="utf-8"?><svg xmlns="http://www.w3.org/2000/svg" xmlns:xlink="http://www.w3.org/1999/xlink"><symbol viewBox="0 0 289 492" id="arrow" xmlns="http://www.w3.org/2000/svg"><path d="M281.2 226.8L62.3 7.9C57.2 2.8 50.4 0 43.2 0s-14 2.8-19 7.9L8.1 24c-10.5 10.5-10.5 27.6 0 38L192 245.9 7.9 430C2.8 435 0 441.8 0 449c0 7.2 2.8 14 7.9 19L24 484.1c5.1 5.1 11.8 7.9 19 7.9s14-2.8 19-7.9L281.2 265c5.1-5.1 7.9-11.9 7.8-19.1.1-7.2-2.7-14-7.8-19.1z"/></symbol><symbol viewBox="0 0 5.9 11" id="arrow-thin" xmlns="http://www.w3.org/2000/svg"><path d="M5.8 5.2L.7.1C.6 0 .3 0 .1.1 0 .3 0 .6.1.7l4.8 4.8-4.8 4.8c-.2.2-.2.4 0 .6.1.1.2.1.3.1.1 0 .2 0 .3-.1l5.1-5.1c.1-.1.1-.2.1-.3 0-.1 0-.2-.1-.3z"/></symbol><symbol viewBox="0 0 270.4 98.1" id="iconSheer"><path d="M175.1 51.8c.2 1.2.3 2.1.5 3 2 8.4 8.6 14 17.2 14.7 7.6.6 13.6-2.3 18-8.5 2.2-3 5.7-3.5 8.5-1.1 1.6 1.4 1.8 3.2.5 4.9-.7.9-1.4 1.8-2.1 2.8-2.9 4-6.7 6.7-11.4 8.3-7.6 2.6-15.2 3-22.7.2-10.1-3.7-16.1-11.1-17.8-21.7-1-6.5-.4-13 2.6-18.9 4.3-8.4 11.1-13.6 20.5-15.1 6.2-1 12.4-.4 18.2 2.4 8.2 3.9 13.2 10.5 15.1 19.3.5 2.4.7 4.9.9 7.3.2 1.5-.5 2.2-2.1 2.3h-44.1c-.4.1-.9.1-1.8.1zm38.3-9.2c-1.2-7.9-10.7-14.7-19.4-14.2-9.1.5-18.2 7.5-18.5 14.2h37.9zm-101 9c.1.8.2 1.4.3 2 1.7 9.3 9.3 15.7 18.7 15.9 7.1.1 12.7-2.8 16.8-8.6 2.2-3.1 6.1-3.4 8.8-.7 1.3 1.4 1.5 3 .3 4.6-.5.8-1.1 1.5-1.7 2.2-3.1 4.5-7.3 7.4-12.5 9.1-7.6 2.5-15.2 2.7-22.5-.2-10.6-4.1-16.4-12.1-17.6-23.3-.6-5.4-.1-10.7 2.2-15.6 4.3-9.4 11.4-15.2 21.8-16.6 5.5-.7 11-.3 16.1 1.8 9.2 3.8 14.6 10.9 16.6 20.6.4 2.2.6 4.5.7 6.7.1 1.8-.3 2.2-2.2 2.2h-43.5c-.7-.1-1.4-.1-2.3-.1zm38.4-9.1c-1.2-7.8-10.4-14.4-19.4-14.2-8.8.2-17.9 7.2-18.6 14.2h38zm101 13.5c.7.6 1.1 1 1.5 1.4 4.9 4.2 9.8 8.3 14.6 12.5.3.3.7.6 1 .9 1.8 1.8 2 4.4.3 6.2-1.6 1.8-4.2 2.1-6.1.5-3.4-2.8-6.7-5.7-10-8.5-4.8-4.1-9.5-8.1-14.3-12.2-.4-.4-.9-.7-1.6-1.3 0 1-.1 1.6-.1 2.3v36.1c-.2 2.5-2.1 4.3-4.6 4.2-2.4-.1-4.1-1.9-4.2-4.4V21.9c0-1.6.2-1.9 1.7-1.9 2.1-.1 4.2-.1 6.2-.1 5 0 10.1.2 15.1-.1 8.4-.4 17.8 6.4 18.7 16.3.8 8.9-5.2 17.3-14.3 19.1-1.1.2-2.3.5-3.9.8zm-15.3-6.9c.5.1.9.1 1.2.1h12.6c1.2 0 2.4-.1 3.6-.5 3.9-1.2 7-3.5 8-7.7 1.7-7.1-3.6-13.7-10.9-13.7h-13c-.5 0-1 .1-1.5.1v21.7zM88.5 52H63.9c0 .7-.1 1.4-.1 2v18.9c0 .8 0 1.6-.2 2.3-.6 1.9-2.6 3.1-4.5 3-2.1-.2-3.8-1.8-4.1-3.9-.1-.5 0-1 0-1.5V5.4c0-.9.1-1.8.4-2.6.6-2 2.6-3 4.7-2.8 1.9.3 3.5 2 3.7 3.9.1.6 0 1.2 0 1.8v34.7c0 .7.1 1.4.1 2 1.5.4 22.9.4 24.5 0 0-.5.1-1.1.1-1.7V23.9c.2-2.3 1.9-4 4.2-4.1 2.3-.1 4.3 1.6 4.6 3.9.1.5 0 1 0 1.5v48.9c-.3 2.3-2.3 4.1-4.5 4-2.3-.1-4.1-1.9-4.3-4.2V52zM25 78.3c-5.9-.1-11.4-1.4-16.5-4.4-2.2-1.3-4.2-2.9-5.8-4.8-.8-1-1.6-2.1-2.2-3.3-1-1.9-.6-3.4.9-4.9 1.7-1.6 4.1-2.3 6.4-.7C9 61 10 62 10.9 63c.9.9 1.6 1.9 2.5 2.8 2.7 2.7 6 4.2 9.8 4.6 3.5.4 7 .3 10.4-.9 1.4-.5 2.8-1.2 4-2.1 2.9-2.2 3-5.9.2-8.2-1.3-1.1-2.9-1.9-4.5-2.6-4-1.7-8.1-2.9-12.3-4-3.4-.8-6.7-1.9-10.1-2.9-1.3-.4-2.5-1.1-3.7-1.7-3.2-1.7-5-4.4-5.5-7.9-1-7.1 1.7-12.8 8.1-15.9 9.8-4.8 19.7-5.2 29.4.4 1.8 1 3.5 2.5 5.1 3.9 1.2 1 2 2.5 2.5 4 .8 2.6-.5 3.9-2.8 4.4-2 .4-3.8-.2-5.2-1.7-.3-.3-.5-.6-.7-.9-2.3-3.4-5.6-5.3-9.6-6.1-4-.7-8-.6-11.8.9-1.4.5-2.8 1.3-3.9 2.3-2.7 2.3-2.7 5.4-.1 7.8 1.7 1.6 3.7 2.5 5.9 3 4.8 1.2 9.7 2.4 14.5 3.6 3.1.8 6.1 1.8 8.9 3.4 3.6 1.9 6.2 4.7 7.1 8.8 1.1 5 0 9.4-3.9 13-4.4 4-9.5 6.3-15.4 7-1.7.1-3.3.2-4.8.3z"/></symbol><symbol viewBox="0 0 19 19" id="insta" xmlns="http://www.w3.org/2000/svg"><g clip-path="url(#dclip0)"><path d="M18.981 5.586c-.044-1.01-.208-1.704-.441-2.305a4.637 4.637 0 00-1.1-1.685A4.676 4.676 0 0015.76.501C15.154.267 14.463.104 13.454.06 12.437.011 12.115 0 9.535 0S6.633.011 5.62.056C4.61.1 3.916.264 3.314.497A4.636 4.636 0 001.63 1.596 4.678 4.678 0 00.534 3.277C.3 3.882.137 4.573.093 5.582.044 6.6.033 6.922.033 9.502s.011 2.902.056 3.916c.044 1.01.208 1.703.442 2.305.24.638.616 1.21 1.098 1.685.475.482 1.05.857 1.682 1.095.605.233 1.295.397 2.305.441C6.629 18.99 6.952 19 9.53 19c2.58 0 2.903-.011 3.916-.056 1.01-.044 1.704-.207 2.305-.441a4.86 4.86 0 002.78-2.78c.234-.605.397-1.296.442-2.305.044-1.014.055-1.336.055-3.916s-.003-2.903-.048-3.916zm-1.71 7.757c-.042.928-.198 1.43-.327 1.764a3.152 3.152 0 01-1.804 1.803c-.334.13-.84.286-1.763.327-1.003.045-1.303.056-3.838.056s-2.84-.011-3.838-.056c-.928-.04-1.43-.197-1.763-.327a2.923 2.923 0 01-1.091-.709 2.954 2.954 0 01-.71-1.09c-.13-.335-.285-.84-.326-1.764-.044-1.002-.055-1.303-.055-3.838s.01-2.84.055-3.838c.04-.927.197-1.429.327-1.763.152-.412.393-.786.712-1.09a2.95 2.95 0 011.092-.71c.334-.13.839-.286 1.763-.326 1.002-.045 1.303-.056 3.837-.056 2.54 0 2.84.011 3.838.056.928.04 1.43.196 1.763.326.412.152.787.394 1.092.71.315.307.556.678.709 1.09.13.334.285.84.326 1.763.045 1.003.056 1.303.056 3.838s-.011 2.832-.056 3.834z"/><path d="M9.536 4.621a4.882 4.882 0 000 9.762 4.882 4.882 0 000-9.762zm0 8.047a3.167 3.167 0 110-6.333 3.167 3.167 0 010 6.333zm6.212-8.24a1.14 1.14 0 11-2.279 0 1.14 1.14 0 012.28 0z"/></g><defs><clipPath id="dclip0"><path fill="#fff" d="M0 0h19v19H0z"/></clipPath></defs></symbol><symbol viewBox="0 0 14.8 14.8" id="phone" xmlns="http://www.w3.org/2000/svg"><path d="M14.4 10.9l-2-2.1c-.7-.7-2-.4-2.3.5-.2.7-1 1-1.6.9C7 9.8 5 7.9 4.6 6.3c-.2-.7.2-1.4.9-1.6 1-.3 1.3-1.6.5-2.3L3.9.4c-.6-.5-1.5-.5-2 0L.5 1.8c-1.4 1.5.1 5.4 3.6 8.9s7.4 5.1 8.9 3.6l1.4-1.4c.5-.6.5-1.5 0-2z"/></symbol><symbol viewBox="0 0 24 24" id="viber" xmlns="http://www.w3.org/2000/svg"><g clip-path="url(#fclip0)"><path d="M23.155 13.893c.716-6.027-.344-9.832-2.256-11.553l.001-.001C17.814-.6 7.392-1.035 3.7 2.471 2.042 4.186 1.458 6.703 1.394 9.819c-.064 3.117-.14 8.956 5.301 10.54H6.7l-.005 2.419s-.037.98.59 1.177c.715.232 1.04-.223 3.266-2.883 3.724.323 6.584-.417 6.91-.525.751-.252 5.006-.815 5.694-6.654zM10.918 19.37s-2.357 2.939-3.09 3.702c-.24.248-.503.225-.499-.267 0-.323.018-4.016.018-4.016-4.613-1.322-4.34-6.294-4.29-8.895.05-2.602.525-4.733 1.93-6.168C8.224.689 17.361 1.368 19.69 3.556c2.846 2.523 1.833 9.651 1.84 9.894-.586 4.874-4.034 5.183-4.668 5.394-.27.09-2.786.737-5.944.526z"/><path d="M12.222 4.297c-.385 0-.385.6 0 .605 2.987.023 5.447 2.105 5.474 5.924 0 .403.59.398.585-.005h-.001c-.032-4.115-2.718-6.501-6.058-6.524z"/><path d="M16.151 10.193c-.009.398.58.417.585.014.05-2.269-1.35-4.138-3.979-4.335-.385-.028-.425.577-.04.605 2.28.173 3.48 1.729 3.434 3.716zm-.631 2.581c-.493-.286-.996-.108-1.204.173l-.435.563c-.221.286-.634.248-.634.248-3.014-.797-3.82-3.95-3.82-3.95s-.037-.428.239-.657l.544-.45c.272-.216.444-.736.167-1.247-.74-1.337-1.237-1.798-1.49-2.152-.266-.333-.666-.408-1.082-.183h-.01c-.864.506-1.811 1.453-1.508 2.428.517 1.028 1.467 4.305 4.495 6.781 1.423 1.171 3.675 2.371 4.63 2.648l.01.014c.942.314 1.858-.67 2.347-1.56v-.008c.217-.43.145-.839-.172-1.106-.562-.548-1.41-1.153-2.076-1.542z"/><path d="M13.169 8.104c.96.056 1.427.558 1.477 1.59.018.402.603.374.585-.029-.064-1.346-.766-2.096-2.03-2.166-.385-.023-.421.582-.032.605z"/></g><defs><clipPath id="fclip0"><path fill="#fff" d="M0 0h24v24H0z"/></clipPath></defs></symbol><symbol viewBox="0 0 28 18" id="vk" xmlns="http://www.w3.org/2000/svg"><path d="M14.17 17.75c4.05 0 2.606-2.564 2.918-3.302-.005-.55-.01-1.08.01-1.402.256.072.862.38 2.112 1.595 1.931 1.948 2.425 3.109 3.985 3.109h2.87c.91 0 1.384-.377 1.621-.693.229-.306.453-.842.208-1.678-.64-2.011-4.376-5.484-4.608-5.85.034-.068.09-.158.12-.205h-.003c.738-.974 3.552-5.19 3.966-6.877a.021.021 0 00.002-.01c.224-.77.019-1.269-.194-1.551-.32-.422-.828-.636-1.515-.636h-2.871c-.962 0-1.69.484-2.06 1.367-.617 1.57-2.35 4.796-3.65 5.939a74.774 74.774 0 01.008-3.772c.042-1.791.178-3.534-1.68-3.534h-4.514c-1.164 0-2.278 1.272-1.072 2.781 1.055 1.323.38 2.06.607 5.731-.887-.95-2.464-3.519-3.58-6.8-.312-.888-.786-1.71-2.12-1.71H1.86C.695.251 0 .885 0 1.948 0 4.336 5.284 17.75 14.17 17.75zM4.73 2.001c.254 0 .28 0 .467.533 1.143 3.364 3.705 8.34 5.576 8.34 1.406 0 1.406-1.44 1.406-1.982l-.001-4.32c-.077-1.429-.598-2.14-.94-2.572l4.093.005c.003.02-.023 4.777.012 5.93 0 1.637 1.3 2.575 3.328.521 2.141-2.416 3.622-6.028 3.681-6.175.088-.21.163-.281.439-.281h2.883c-.002.003-.002.007-.003.01-.262 1.226-2.853 5.13-3.72 6.341a1.005 1.005 0 00-.04.059c-.381.623-.692 1.311.053 2.28.069.081.245.272.501.538.798.824 3.535 3.64 3.778 4.76-.161.026-.336.007-3.048.013-.578 0-1.03-.863-2.753-2.602-1.549-1.507-2.555-2.123-3.47-2.123-1.779 0-1.649 1.443-1.633 3.189.006 1.892-.005 1.293.007 1.412-.104.041-.401.123-1.177.123C6.767 16 1.946 4.25 1.76 2.005c.065-.006.948-.003 2.97-.004z"/></symbol><symbol viewBox="0 0 24 24" id="wa" xmlns="http://www.w3.org/2000/svg"><path fill-rule="evenodd" clip-rule="evenodd" d="M19.958 4.008a11.077 11.077 0 00-7.886-3.27C5.926.738.925 5.74.922 11.887c0 1.965.513 3.883 1.488 5.574L.83 23.238l5.91-1.55a11.137 11.137 0 005.328 1.357h.005c6.145 0 11.147-5.002 11.149-11.15a11.08 11.08 0 00-3.263-7.887zm-7.886 17.154h-.004A9.256 9.256 0 017.35 19.87l-.338-.2-3.507.92.936-3.42-.22-.35a9.244 9.244 0 01-1.417-4.933c.002-5.109 4.159-9.266 9.27-9.266a9.204 9.204 0 016.552 2.718 9.212 9.212 0 012.712 6.556c-.003 5.11-4.16 9.267-9.267 9.267zm5.083-6.94c-.279-.14-1.649-.814-1.904-.907-.255-.093-.441-.14-.627.14-.185.278-.72.906-.882 1.092-.162.186-.325.21-.603.07-.279-.14-1.177-.434-2.24-1.383-.829-.739-1.388-1.651-1.55-1.93-.163-.279-.002-.415.122-.568.301-.375.603-.768.696-.953.093-.186.046-.349-.023-.488-.07-.14-.627-1.511-.859-2.069-.226-.543-.456-.47-.627-.478-.162-.008-.348-.01-.534-.01-.185 0-.487.07-.743.349-.255.279-.975.953-.975 2.324s.999 2.696 1.138 2.882c.14.186 1.964 3 4.759 4.206.664.287 1.183.459 1.588.587.668.212 1.275.182 1.755.11.535-.08 1.648-.674 1.88-1.324.232-.651.232-1.209.163-1.325-.07-.116-.256-.186-.534-.325z"/></symbol></svg>