<svg height="512" width="512" xmlns="http://www.w3.org/2000/svg" fill="#0287d1"><path d="M468.361 84.464c-.971-18.101-8.563-34.961-21.599-47.781-13.838-13.609-32.129-21.01-51.486-20.851-19.365.162-37.523 7.871-51.132 21.708-12.533 12.744-19.787 29.265-20.731 46.923H0V496.17h512V84.464zm-96.567 72.462a72.436 72.436 0 0024.694 4.086 72.194 72.194 0 0026.17-5.136v43.777L397.03 189.2l-25.236 11.34zm-30 74.967c-24.321-19.734-54.422-30.464-86.174-30.464-38.703 0-75.789 16.482-101.746 45.22l22.263 20.109c20.279-22.452 49.25-35.329 79.483-35.329 28.6 0 55.488 11.138 75.713 31.361l20.303-20.304 45.967-20.655 25.056 10.219v125.434c-26.11 5.735-46.726 26.118-52.57 51.959h-228.16c-5.778-25.794-26.134-46.149-51.928-51.928V225.118c25.794-5.778 46.149-26.133 51.928-51.928h199.866v58.703zm23.739-173.317c7.989-8.124 18.641-12.65 29.992-12.745l.364-.001c11.217 0 21.801 4.34 29.837 12.243 8.124 7.989 12.65 18.641 12.746 29.992.195 23.484-18.751 42.75-42.234 42.947l-.364.001c-11.217 0-21.801-4.34-29.837-12.243-8.124-7.99-12.65-18.641-12.746-29.993-.095-11.352 4.253-22.077 12.242-30.201zM482 466.17H30V114.464h298.113c3.128 8.135 7.734 15.68 13.681 22.311v6.415H113.58v15c0 21.273-17.307 38.58-38.58 38.58H60v189.094h15c21.273 0 38.58 17.307 38.58 38.58v15h284.84v-15c0-21.273 17.603-38.58 39.238-38.58h15v-252.28a72.604 72.604 0 0010.961-19.12H482z"/><path d="M112.331 290.553h287.338v30H112.331zm73.309 58h140.721v30H185.64z"/></svg>