<svg height="512" width="512" xmlns="http://www.w3.org/2000/svg" fill="#0287d1"><path d="M459.898 139.151c-28.729 0-52.102 23.373-52.102 52.102v10.864h-52.054v-60.848c0-50.168-37.044-91.843-85.214-99.117V0H240.47v42.151c-48.17 7.273-85.214 48.949-85.214 99.117v60.848h-51.052v-10.864c0-28.729-23.373-52.102-52.102-52.102C23.373 139.151 0 162.523 0 191.252v268.646C0 488.627 23.373 512 52.102 512h407.797C488.627 512 512 488.627 512 459.898V191.252c0-28.729-23.373-52.101-52.102-52.101zm-274.584 73.615a100.72 100.72 0 0026.257 18.592v148.069l-26.257-19.904zm56.316 27.781c4.535.63 9.163.964 13.869.964s9.334-.333 13.869-.964v42.529H241.63zm57.797-9.188a100.704 100.704 0 0026.257-18.592v146.758l-26.257 19.904zM255.499 71.083c38.7 0 70.185 31.484 70.185 70.185 0 38.7-31.485 70.184-70.185 70.184s-70.185-31.484-70.185-70.184 31.485-70.185 70.185-70.185zM30.059 191.252c0-12.155 9.888-22.043 22.043-22.043s22.043 9.888 22.043 22.043v221.439c-6.698-3.139-14.17-4.895-22.043-4.895s-15.345 1.756-22.043 4.895zm429.839 290.689H52.102c-12.155 0-22.043-9.888-22.043-22.043s9.888-22.043 22.043-22.043 22.043 9.888 22.043 22.043h30.059V232.175h51.052v142.283l56.316 42.689v30.258h30.059v-134.27h27.738v134.27h30.059v-30.258l56.316-42.689V232.175h52.054v227.723h30.059c0-12.155 9.888-22.043 22.043-22.043s22.043 9.888 22.043 22.043c-.002 12.155-9.89 22.043-22.045 22.043zm22.043-69.249c-6.698-3.139-14.17-4.895-22.043-4.895s-15.345 1.756-22.043 4.895v-221.44c0-12.155 9.888-22.043 22.043-22.043s22.043 9.888 22.043 22.043z"/><path d="M240.47 126.239h30.059v30.059H240.47z"/></svg>