<svg height="512pt" viewBox="0 0 512 512" width="512pt" xmlns="http://www.w3.org/2000/svg" fill="#0287d1"><path d="M501.633 198.445C462.578 185.77 422.066 178.668 381 177.277V0H0v512h368.406l2.29-.754c40.788-13.445 75.859-38.926 101.417-73.683C498.207 402.074 512 359.972 512 315.8V201.813zM30 482V30h321v147.277c-41.066 1.391-81.578 8.493-120.633 21.168L220 201.813V315.8c0 44.172 13.793 86.273 39.887 121.762C272.527 454.757 287.5 469.68 304.34 482zm452-166.2c0 74.403-46.41 140.223-116 165.333-69.59-25.11-116-90.93-116-165.332v-92.028c75.219-22.171 156.781-22.171 232 0zm0 0"/><path d="M60 181h130v30H60zm0-60h261v30H60zm0 120h130v30H60zm0 60h130v30H60zm0 60h130v30H60zm232.082-116.734L280 246.66v69.14c0 55.013 30.336 104.72 79.164 129.723l6.836 3.5 6.836-3.5C421.664 420.52 452 370.813 452 315.801v-69.14l-12.082-2.395c-48.45-9.614-99.387-9.614-147.836 0zm19.195 88.757H351v71.301c-21.434-18.031-35.578-43.289-39.723-71.3zM381 404.324v-71.3h39.723c-4.145 28.011-18.29 53.269-39.723 71.3zm41-101.3H310v-31.508c36.914-5.97 75.086-5.97 112 0zm0 0"/></svg>