<svg height="512pt" viewBox="0 0 512 512.001" width="512pt" xmlns="http://www.w3.org/2000/svg" fill="#0287d1"><path d="M509.973 392.3c-4.016-20.195-14.04-38.429-28.989-52.73-18.636-17.824-43.421-27.406-68.617-27.582a46.636 46.636 0 001.551-11.922c0-12.402-4.828-24.058-13.598-32.828a46.162 46.162 0 00-15.156-10.097c10.602-17.817 8.246-41.258-7.066-56.57-8.563-8.56-19.66-13.067-30.895-13.532-.473-11.684-5.238-22.602-13.555-30.914-8.312-8.316-19.23-13.082-30.914-13.55-.464-11.24-4.968-22.337-13.53-30.9-18.099-18.097-47.552-18.097-65.653.005l-20.61 20.61-6.27-6.27c9.161-34.247-.503-71.282-25.882-96.66C141.961.53 99.023-7.927 61.402 7.82a14.986 14.986 0 00-8.925 10.934 15 15 0 004.109 13.504l49.39 49.39a4.975 4.975 0 011.465 3.536c0 .77-.191 2.257-1.464 3.535L88.664 106.03a5.005 5.005 0 01-7.07 0l-49.39-49.394a14.987 14.987 0 00-13.505-4.106 14.996 14.996 0 00-10.933 8.922c-7.72 18.445-9.73 38.586-5.825 58.25 4.012 20.195 14.04 38.426 28.989 52.727 16.554 15.836 37.96 25.156 60.195 27.168l-15.887 15.875c-20.656 20.636-32.035 48.082-32.043 77.28 0 7.548.766 14.974 2.246 22.196L4.703 355.687c-5.86 5.856-5.86 15.352 0 21.211a14.945 14.945 0 0010.602 4.391c3.836 0 7.675-1.465 10.605-4.39l31.012-31.012a109.64 109.64 0 0018.285 24.164l66.703 66.703a109.174 109.174 0 0024.016 18.168l-31.406 31.406c-5.86 5.856-5.86 15.352 0 21.207a14.933 14.933 0 0010.601 4.395c3.836 0 7.676-1.465 10.606-4.395l41.117-41.12a109.986 109.986 0 0022.34 2.296c27.98-.004 55.968-10.656 77.27-31.957l15.827-15.824c2.09 22.89 12 44.867 28.844 61.71 19.195 19.2 44.648 29.36 70.621 29.36 13.031 0 26.195-2.559 38.766-7.816a14.996 14.996 0 004.816-24.438l-49.39-49.39a4.981 4.981 0 01-1.465-3.536c0-.773.191-2.261 1.464-3.535l17.313-17.312a5.002 5.002 0 017.07 0l49.39 49.386a14.996 14.996 0 0024.437-4.813c7.716-18.444 9.732-38.585 5.826-58.245zm-175.309-36.17c-6.406 6.406-16.828 6.41-23.238 0a16.329 16.329 0 01-4.813-11.617c0-4.39 1.711-8.516 4.813-11.621l44.453-44.45a16.323 16.323 0 0111.613-4.808c4.39 0 8.516 1.71 11.621 4.816 3.102 3.102 4.813 7.227 4.813 11.617s-1.711 8.516-4.813 11.618zm22.227-111.113l-22.223 22.218v.004l-44.445 44.446c-6.41 6.406-16.836 6.406-23.243 0s-6.406-16.832 0-23.239l14.813-14.812s.004 0 .004-.004l7.406-7.406c.004-.004.004-.008.008-.008l44.437-44.438c3.207-3.207 7.414-4.808 11.622-4.808s8.417 1.605 11.62 4.804c6.407 6.41 6.407 16.836 0 23.243zm-39.637-56.067a16.32 16.32 0 01-4.813 11.621l-33.84 33.844-23.242-23.242 33.844-33.84s0-.004.004-.004a16.316 16.316 0 0111.613-4.808c4.39 0 8.52 1.71 11.621 4.812a16.32 16.32 0 014.813 11.617zm-72.496-56.062c6.406-6.407 16.832-6.407 23.238 0s6.406 16.832 0 23.238l-33.844 33.84-23.238-23.238zM124.844 165.59c-25.172 9.433-53.899 3.613-73.184-14.832-15.066-14.414-22.633-34.043-21.656-53.903l30.383 30.383c13.644 13.64 35.84 13.64 49.484 0l17.313-17.312c6.609-6.61 10.25-15.399 10.25-24.742 0-9.348-3.641-18.133-10.25-24.743L96.832 30.09c19.328-.918 38.5 6.226 52.75 20.476 19.418 19.418 25.695 48.582 15.992 74.305a14.99 14.99 0 003.43 15.895l6.71 6.71c-17.171-2.492-35.273 2.848-48.46 16.024l-1.938 1.937c-.16.055-.316.094-.472.153zm150.402 249.957c-30.914 30.914-81.215 30.914-112.129 0L96.41 348.84c-14.98-14.98-23.226-34.895-23.223-56.082.004-21.184 8.262-41.098 23.247-56.07l52.02-51.973c8.495-8.488 21.308-10.098 31.444-4.828a14.526 14.526 0 002.45 1.441 26.98 26.98 0 014.148 3.399l36.945 36.941c.036.039.067.078.102.113.035.035.074.067.113.102l33.543 33.543c-14.66 11.492-35.988 10.492-49.484-3.004l-14.106-14.106c-5.855-5.855-15.351-5.855-21.207 0a14.944 14.944 0 00-4.39 10.606 14.93 14.93 0 004.39 10.601l6.7 6.7c9.039 9.039 14.015 21.058 14.015 33.843 0 12.782-4.976 24.801-14.015 33.84l-17.352 17.352c-5.855 5.855-5.855 15.351 0 21.207 5.855 5.855 15.352 5.855 21.207 0l17.352-17.352c14.703-14.703 22.8-34.254 22.8-55.047 0-2.586-.125-5.156-.37-7.699 3.292.563 6.616.863 9.948.938-2.046 14.027 2.313 28.816 13.083 39.586 8.562 8.562 19.66 13.066 30.898 13.53.469 11.684 5.234 22.602 13.55 30.919a46.177 46.177 0 0013.75 9.488zm206.66-.402l-30.379-30.383c-13.644-13.64-35.843-13.64-49.484 0l-17.313 17.316c-6.609 6.606-10.25 15.395-10.25 24.742 0 9.344 3.641 18.133 10.25 24.743l30.348 30.347c-19.32.914-38.496-6.222-52.746-20.476-19.418-19.418-25.695-48.586-15.992-74.309.047-.129.082-.254.129-.383l9.402-9.406c.004 0 .004 0 .004-.004l30.785-30.785c.137-.047.277-.086.414-.137 25.172-9.433 53.895-3.61 73.176 14.832 15.07 14.414 22.637 34.047 21.656 53.903zm0 0"/></svg>