<svg height="512" width="512" xmlns="http://www.w3.org/2000/svg" fill="#0287d1"><path d="M76 360h151c11.797 0 18.983-13.037 12.681-23.012l-151-239C80.673 85.313 61 91.022 61 106v239c0 8.284 6.716 15 15 15zm15-202.175L199.78 330H91zM146 120h34v66c0 8.284 6.716 15 15 15s15-6.716 15-15v-66h90v62h-45c-8.284 0-15 6.716-15 15v59c0 8.284 6.716 15 15 15h45v60h-14c-8.284 0-15 6.716-15 15s6.716 15 15 15h29c8.284 0 15-6.716 15-15v-90c0-8.284-6.716-15-15-15h-45v-29h45c8.284 0 15-6.716 15-15v-92c0-8.284-6.716-15-15-15H146c-8.284 0-15 6.716-15 15s6.716 15 15 15zm364.426-50.688l-30.384-61c-5.528-11.097-21.479-11.07-26.92.137l-29.615 61A14.989 14.989 0 00422 76v285c0 8.284 6.716 15 15 15h60c8.284 0 15-6.716 15-15V76a15 15 0 00-1.574-6.688zm-43.638-20.323L482 79.529V270h-30V79.449zM452 346v-46h30v46z"/><path d="M391 391.013V15c0-8.284-6.716-15-15-15H15C6.716 0 0 6.716 0 15c.019 321.536-.043 438.326.076 439.514C1.653 486.479 28.151 512 60.5 512h330c33.36 0 60.5-27.14 60.5-60.5 0-33.192-26.871-60.216-60-60.487zM30 451.5V30h331v361H60.5c-8.284 0-15 6.716-15 15s6.716 15 15 15c16.818 0 30.5 13.682 30.5 30.5S77.318 482 60.5 482 30 468.318 30 451.5zM390.5 482H112.717a60.267 60.267 0 000-61H390.5c16.818 0 30.5 13.682 30.5 30.5S407.318 482 390.5 482z"/></svg>