<svg height="512" width="512" xmlns="http://www.w3.org/2000/svg" fill="#0287d1"><path d="M503.183 123.988c-.831-6.957-6.378-12.412-13.347-13.14-.313-.032-31.525-3.386-53.088-13.768-18.184-8.756-32.471-21.704-38.892-28.091V15c0-8.284-6.716-15-15-15h-360c-8.284 0-15 6.716-15 15v482c0 8.284 6.716 15 15 15h264.102c4.058 0 7.935-1.722 10.606-4.394l95.809-95.809a15.045 15.045 0 004.482-10.687v-51.414c49.745-30.952 83.674-78.788 98.344-138.906 11.519-47.203 7.176-85.207 6.984-86.802zM37.857 30h330v38.989c-6.432 6.398-20.715 19.339-38.89 28.092-21.564 10.382-52.777 13.734-53.08 13.767a14.999 14.999 0 00-13.356 13.141c-.191 1.595-4.535 39.599 6.982 86.802 14.669 60.118 48.599 107.955 98.344 138.906v36.414h-80.9c-8.284 0-15 6.716-15 15V482h-234.1zm308.779 386.11l-44.68 44.68v-44.68zm120.419-212.431c-12.863 52.719-41.175 93.064-84.198 120.044-64.684-40.563-93.019-112.152-91.188-184.84 36.186-6.131 62.608-16.872 91.188-42.768 28.523 25.843 54.931 36.626 91.211 42.771.353 13.391-.315 37.346-7.013 64.793z"/><path d="M447.457 164.105c-6.273-5.41-15.746-4.708-21.155 1.563l-45.735 53.035-25.437-25.436c-5.857-5.857-15.355-5.857-21.213 0s-5.858 15.355 0 21.213l36.856 36.855c6.151 6.151 16.258 5.808 21.966-.811l56.281-65.266c5.41-6.271 4.71-15.742-1.563-21.153zM142.857 60h-60c-8.284 0-15 6.716-15 15v60c0 8.284 6.716 15 15 15h60c8.284 0 15-6.716 15-15V75c0-8.284-6.716-15-15-15zm-15 60h-30V90h30zm15 60h-60c-8.284 0-15 6.716-15 15v60c0 8.284 6.716 15 15 15h60c8.284 0 15-6.716 15-15v-60c0-8.284-6.716-15-15-15zm-15 60h-30v-30h30zm15 60h-60c-8.284 0-15 6.716-15 15v60c0 8.284 6.716 15 15 15h60c8.284 0 15-6.716 15-15v-60c0-8.284-6.716-15-15-15zm-15 60h-30v-30h30z"/></svg>