<svg height="512" width="512" xmlns="http://www.w3.org/2000/svg" fill="#0287d1"><path d="M375.01 66.5V35.333h-60.353C303.328 13.824 280.951 0 256 0s-47.328 13.824-58.657 35.333H136.99V66.5H60V512h392V66.5zm-208.02-1.167h51.101l3.386-10.327C226.381 40.049 240.254 30 256 30s29.619 10.049 34.523 25.006l3.386 10.327h51.101v37H166.99zM422 482H90V96.5h46.99v35.833h238.02V96.5H422z"/><path d="M241.335 323.799l-31.518-31.163-21.092 21.332 51.816 51.233 82.317-75.369-20.258-22.127z"/><path d="M256 185.623c-69.317 0-125.71 56.394-125.71 125.71s56.393 125.71 125.71 125.71 125.71-56.394 125.71-125.71-56.393-125.71-125.71-125.71zm0 221.42c-52.775 0-95.71-42.936-95.71-95.71s42.935-95.71 95.71-95.71 95.71 42.936 95.71 95.71-42.935 95.71-95.71 95.71z"/></svg>