<svg height="512" width="512" xmlns="http://www.w3.org/2000/svg" fill="#0287d1"><path d="M437.02 74.98C388.667 26.629 324.38 0 256 0S123.333 26.629 74.98 74.98C26.629 123.333 0 187.62 0 256s26.629 132.667 74.98 181.02C123.333 485.371 187.62 512 256 512s132.667-26.629 181.02-74.98C485.371 388.667 512 324.38 512 256s-26.629-132.667-74.98-181.02zM256 482C131.383 482 30 380.617 30 256S131.383 30 256 30s226 101.383 226 226-101.383 226-226 226z"/><path d="M117.407 117.407l21.213 21.213c64.724-64.723 170.036-64.723 234.76 0l21.213-21.213c-76.42-76.421-200.766-76.421-277.186 0zM138.62 373.38l-21.213 21.213c38.21 38.21 88.401 57.315 138.593 57.315s100.383-19.105 138.593-57.315L373.38 373.38c-64.724 64.723-170.036 64.723-234.76 0zM120.609 241h30v30h-30zm241 0h30v30h-30zm-116.326 30h22.1c33.017 0 59.878-26.861 59.878-59.879 0-33.017-26.861-59.879-59.878-59.879h-52.1V241H196.5v30h18.783v26.077H196.5v30h18.783v34.263h30v-34.263H314.5v-30h-69.217zm0-89.758h22.1c16.475 0 29.878 13.404 29.878 29.879S283.857 241 267.382 241h-22.1v-59.758z"/></svg>