<svg xmlns="http://www.w3.org/2000/svg" viewBox="0 0 512 512" fill="#0287d1"><path d="M391 339V0H11v447c0 35.841 29.159 65 65 65h360c35.841 0 65-29.159 65-65V339H391zM76 482c-19.299 0-35-15.701-35-35V30h320v417a64.627 64.627 0 0010.249 35H76zm395-35c0 19.299-15.701 35-35 35h-10c-19.299 0-35-15.701-35-35v-78h80v78z"/><path d="M307 206.096V162h-94.787L153 102.787V58h-30v44.787L48.287 177.5 123 252.213V296H65v90h58v71h30v-71h58v-30h96v-44.096c23.057-6.547 40-27.777 40-52.904 0-25.127-16.943-46.356-40-52.904zM90.713 177.5L138 130.213l47.287 47.287L138 224.787 90.713 177.5zM181 356H95v-30h86v30zm96-30h-66v-30h-58v-43.787L213.213 192H277v14.096c-23.057 6.547-40 27.777-40 52.904s16.943 46.356 40 52.904V326zm15-42c-13.785 0-25-11.215-25-25s11.215-25 25-25 25 11.215 25 25-11.215 25-25 25z"/><path d="M240.9 122v-9.5h-17v9.5h-8.5v15h8.5v9.5h17V137h8.5v-15zM74 251.9h31.3v17H74z"/></svg>