<svg height="512" width="512" xmlns="http://www.w3.org/2000/svg" fill="#0287d1"><path d="M407 512c57.897 0 105-47.552 105-106 0-41.802-24.557-77.973-60-94.855V30h-90V0h-30v30h-91V0h-30v30h-90V0H91v30H0v421h311.946c16.795 36.01 53.085 61 95.054 61zm75-106c0 41.906-33.645 76-75 76s-75-34.094-75-76c0-41.355 33.645-75 75-75s75 33.645 75 75zM30 60h61v30h30V60h90v30h30V60h91v30h30V60h60v60H30zm0 361V150h392v152.076A105.426 105.426 0 00407 301c-57.897 0-105 47.103-105 105 0 5.092.365 10.098 1.056 15z"/><path d="M392 361v60h60v-30h-30v-30zM61 271h90v-90H61zm30-60h30v30H91zM61 391h90v-90H61zm30-60h30v30H91zm90 60h90v-90h-90zm30-60h30v30h-30zm-30-60h90v-90h-90zm30-60h30v30h-30zm181-30h-90v90h90zm-30 60h-30v-30h30z"/></svg>